<?xml version="1.0" encoding="UTF-8" standalone="no"?> <svg id="Layer_1" fill="black" stroke="white" data-name="Layer 1" xmlns="http://www.w3.org/2000/svg" viewBox="0 0 64 64"><title>leverage-coin-money-invest-borrow-investment</title><polygon points="49 12 49 15 46 15 46 17 49 17 49 20 51 20 51 17 54 17 54 15 51 15 51 12 49 12"/><polygon points="56 3 56 6 53 6 53 8 56 8 56 11 58 11 58 8 61 8 61 6 58 6 58 3 56 3"/><polygon points="59 20 57 20 57 23 54 23 54 25 57 25 57 28 59 28 59 25 62 25 62 23 59 23 59 20"/><path d="M21,18a6,6,0,1,0,6,6A6,6,0,0,0,21,18Zm.11279,5.51172C22.12012,23.74707,23.5,24.07031,23.5,25.5a2.29522,2.29522,0,0,1-2.5,2,2.29522,2.29522,0,0,1-2.5-2h1c0,.542.687,1,1.5,1s1.5-.458,1.5-1c0-.57715-.49219-.752-1.61475-1.01465C19.87842,24.25,18.5,23.92773,18.5,22.5a2.29522,2.29522,0,0,1,2.5-2,2.29522,2.29522,0,0,1,2.5,2h-1c0-.542-.687-1-1.5-1s-1.5.458-1.5,1C19.5,23.0752,19.99121,23.25,21.11279,23.51172Z"/><rect x="2" y="46" width="4" height="13"/><path d="M10.03363,57l7.2583,4.555a3.33619,3.33619,0,0,0,3.50391-.10785L38.23138,50.00623a1.60229,1.60229,0,0,0-.778-2.97022L17.666,48.9472l4.00024,2.75251A3.06885,3.06885,0,0,1,22.95337,53.728a3.12371,3.12371,0,0,1-.55078,2.38135,2.97639,2.97639,0,0,1-2.41113,1.24121,2.93962,2.93962,0,0,1-1.67139-.52295l-4.05029-2.78711.5664-.82422,4.05029,2.78711a1.95962,1.95962,0,0,0,2.707-.48194,2.13018,2.13018,0,0,0,.374-1.62451,2.07275,2.07275,0,0,0-.86816-1.373L13,47H7l.0224,10Z"/><path d="M46,41.95v3.64685c1.41589,1.32929,4.506,2.27814,8,2.27814s6.58411-.94885,8-2.27814V41.95a15.22248,15.22248,0,0,1-8,1.925A15.22248,15.22248,0,0,1,46,41.95Z"/><path d="M46,51.95v3.64685c1.41589,1.32929,4.506,2.27814,8,2.27814s6.58411-.94885,8-2.27814V51.95a15.22248,15.22248,0,0,1-8,1.925A15.22248,15.22248,0,0,1,46,51.95Z"/><path d="M46,46.95v3.64685c1.41589,1.32929,4.506,2.27814,8,2.27814s6.58411-.94885,8-2.27814V46.95a15.22248,15.22248,0,0,1-8,1.925A15.22248,15.22248,0,0,1,46,46.95Z"/><path d="M46,56.95v.675C46,60.0412,49.58173,62,54,62s8-1.9588,8-4.375V56.95a15.22248,15.22248,0,0,1-8,1.925A15.22248,15.22248,0,0,1,46,56.95Z"/><path d="M46.68469,36.23981C47.43427,37.79559,50.47711,39,54,39s6.56573-1.20441,7.31531-2.76019a.96483.96483,0,0,0-.2403-1.09876C59.73706,33.86884,57.07452,33,54,33s-5.73706.86884-7.075,2.14105A.96483.96483,0,0,0,46.68469,36.23981Z"/><path d="M54,40c-3.74176,0-6.83771-1.22046-8-2.9649v3.56176c1.41589,1.32929,4.506,2.27814,8,2.27814s6.58411-.94885,8-2.27814V37.0351C60.83771,38.77954,57.74176,40,54,40Z"/><path d="M38,4a2,2,0,0,0-2-2H3V14H15.34875a5.87942,5.87942,0,0,0,.58851,5.17957,7.02432,7.02432,0,0,1,2.106-1.51532,2.97278,2.97278,0,0,1,5.91346,0,7.02432,7.02432,0,0,1,2.106,1.51532A5.87942,5.87942,0,0,0,26.65125,14H36a2,2,0,0,0,0-4,2,2,0,0,0,0-4A2,2,0,0,0,38,4ZM23.77545,5.5509h12v1h-12Zm12.14972,4.973h-12v-1h12Z"/></svg>